<svg width="337.55px" height="144.8px" xmlns="http://www.w3.org/2000/svg" viewBox="81.225 2.5999999999999943 337.55 144.8" style="background: rgba(0, 0, 0, 0);" preserveAspectRatio="xMidYMid"><defs>
  <filter id="editing-scratch" x="-100%" y="-100%" width="300%" height="300%">
    <!-- COLOR -->
    <feFlood flood-color="#ddd" flood-opacity="0.75" result="COLOR-blu"></feFlood>
    <feFlood flood-color="#666" flood-opacity="0.4" result="COLOR-red"></feFlood>
    <!-- COLOR END -->

    <!-- Texture -->
    <feTurbulence baseFrequency=".05" type="fractalNoise" numOctaves="3" seed="0" result="Texture_10"></feTurbulence>
    <feColorMatrix type="matrix" values="0 0 0 0 0,
    0 0 0 0 0,
    0 0 0 0 0,
    0 0 0 -2.1 1.1" in="Texture_10" result="Texture_20"></feColorMatrix>

    <feColorMatrix result="Texture_30" type="matrix" values="0 0 0 0 0,
    0 0 0 0 0,
    0 0 0 0 0,
    0 0 0 -1.7 1.8" in="Texture_10"></feColorMatrix>
    <!-- Texture -->

    <!-- FILL -->
    <feOffset dx="-3" dy="4" in="SourceAlpha" result="FILL_10"></feOffset>
    <feDisplacementMap scale="17" in="FILL_10" in2="Texture_10" result="FILL_20"></feDisplacementMap>
    <feComposite operator="in" in="Texture_30" in2="FILL_20" result="FILL_40"></feComposite>
    <feComposite operator="in" in="COLOR-blu" in2="FILL_40" result="FILL_50"></feComposite>
    <!-- FILL END-->

    <!-- OUTLINE -->
    <feMorphology operator="dilate" radius="3" in="SourceGraphic" result="OUTLINE_10"></feMorphology>
    <feComposite operator="out" in="OUTLINE_10" in2="SourceGraphic" result="OUTLINE_20"></feComposite>
    <feDisplacementMap scale="7" in="OUTLINE_20" in2="Texture_10" result="OUTLINE_30"></feDisplacementMap>
    <feComposite operator="arithmetic" k2="-1" k3="1" in="Texture_20" in2="OUTLINE_30" result="OUTLINE_40"></feComposite>
    <!-- OUTLINE END-->

    <!-- BEVEL OUTLINE -->
    <feConvolveMatrix order="8,8" divisor="1" kernelMatrix="1 0 0 0 0 0 0 0 0 1 0 0 0 0 0 0 0 0 1 0 0 0 0 0 0 0 0 1 0 0 0 0 0 0 0 0 1 0 0 0 0 0 0 0 0 1 0 0 0 0 0 0 0 0 1 0 0 0 0 0 0 0 0 1 " in="SourceGraphic" result="BEVEL_10"></feConvolveMatrix>
    <feMorphology operator="dilate" radius="2" in="BEVEL_10" result="BEVEL_20"></feMorphology>
    <feComposite operator="out" in="BEVEL_20" in2="BEVEL_10" result="BEVEL_30"></feComposite>
    <feDisplacementMap scale="7" in="BEVEL_30" in2="Texture_10" result="BEVEL_40"></feDisplacementMap>
    <feComposite operator="arithmetic" k2="-1" k3="1" in="Texture_20" in2="BEVEL_40" result="BEVEL_50"></feComposite>
    <feOffset dx="-7" dy="-7" in="BEVEL_50" result="BEVEL_60"></feOffset>
    <feComposite operator="out" in="BEVEL_60" in2="OUTLINE_10" result="BEVEL_70"></feComposite>
    <!-- BEVEL OUTLINE END -->

    <!-- BEVEL FILL -->
    <feOffset dx="-9" dy="-9" in="BEVEL_10" result="BEVEL-FILL_10"></feOffset>
    <feComposite operator="out" in="BEVEL-FILL_10" in2="OUTLINE_10" result="BEVEL-FILL_20"></feComposite>
    <feDisplacementMap scale="17" in="BEVEL-FILL_20" in2="Texture_10" result="BEVEL-FILL_30"></feDisplacementMap>
    <feComposite operator="in" in="COLOR-red" in2="BEVEL-FILL_30" result="BEVEL-FILL_50"></feComposite> <!-- -->
    <!-- BEVEL FILL END-->

    <feMerge result="merge2">
     <feMergeNode in="BEVEL-FILL_50"></feMergeNode>
     <feMergeNode in="BEVEL_70"></feMergeNode>
     <feMergeNode in="FILL_50"></feMergeNode>
      <feMergeNode in="OUTLINE_40"></feMergeNode>
    </feMerge>
  </filter>
</defs>
<g filter="url(#editing-scratch)"><g transform="translate(133.43998473882675, 108.65500068664551)"><path d="M0.81-24.38L0.81-24.38L0.81-24.38Q1.56-24.69 2.13-24.50L2.13-24.50L2.13-24.50Q2.69-24.31 3.06-23.81L3.06-23.81L3.06-23.81Q3.44-23.31 3.63-22.66L3.63-22.66L3.63-22.66Q3.81-22 3.94-21.38L3.94-21.38L3.94-21.38Q4.75-22.75 6.28-23.59L6.28-23.59L6.28-23.59Q7.81-24.44 9.56-24.72L9.56-24.72L9.56-24.72Q11.31-25 13.06-24.84L13.06-24.84L13.06-24.84Q14.81-24.69 16.03-24.09L16.03-24.09L16.03-24.09Q17.25-23.50 17.75-22.47L17.75-22.47L17.75-22.47Q18.25-21.44 17.50-20.06L17.50-20.06L17.50-20.06Q15.88-21 14.09-21.56L14.09-21.56L14.09-21.56Q12.31-22.13 10.63-21.94L10.63-21.94L10.63-21.94Q8.94-21.75 7.50-20.66L7.50-20.66L7.50-20.66Q6.06-19.56 5.13-17.19L5.13-17.19L5.13-17.19Q4.19-14.81 3.97-10.91L3.97-10.91L3.97-10.91Q3.75-7 4.50-1.19L4.50-1.19L2.13-1.19L2.13-1.19Q2.13-1.19 2.03-2.22L2.03-2.22L2.03-2.22Q1.94-3.25 1.84-4.94L1.84-4.94L1.84-4.94Q1.75-6.63 1.59-8.69L1.59-8.69L1.59-8.69Q1.44-10.75 1.31-12.88L1.31-12.88L1.31-12.88Q1.19-15 1.09-16.97L1.09-16.97L1.09-16.97Q1-18.94 0.88-20.38L0.88-20.38L0.88-20.38Q0.88-20.56 0.84-21.13L0.84-21.13L0.84-21.13Q0.81-21.69 0.81-22.34L0.81-22.34L0.81-22.34Q0.81-23 0.81-23.56L0.81-23.56L0.81-23.56Q0.81-24.13 0.81-24.38ZM20.31-24.25L20.31-24.25L20.31-24.25Q20.31-24.56 20.72-24.88L20.72-24.88L20.72-24.88Q21.13-25.19 21.72-25.38L21.72-25.38L21.72-25.38Q22.31-25.56 22.88-25.63L22.88-25.63L22.88-25.63Q23.44-25.69 23.69-25.44L23.69-25.44L23.69-25.44Q24.06-17.69 25.16-13.09L25.16-13.09L25.16-13.09Q26.25-8.50 27.66-6.38L27.66-6.38L27.66-6.38Q29.06-4.25 30.69-4.22L30.69-4.22L30.69-4.22Q32.31-4.19 33.88-5.59L33.88-5.59L33.88-5.59Q35.44-7 36.78-9.44L36.78-9.44L36.78-9.44Q38.13-11.88 38.97-14.69L38.97-14.69L38.97-14.69Q39.81-17.50 40-20.31L40-20.31L40-20.31Q40.19-23.13 39.50-25.31L39.50-25.31L43.25-25.75L43.25-25.75Q43.31-24.81 43.59-22.66L43.59-22.66L43.59-22.66Q43.88-20.50 44.22-17.78L44.22-17.78L44.22-17.78Q44.56-15.06 45-12.13L45-12.13L45-12.13Q45.44-9.19 45.75-6.66L45.75-6.66L45.75-6.66Q46.06-4.13 46.31-2.34L46.31-2.34L46.31-2.34Q46.56-0.56 46.56-0.13L46.56-0.13L43.88-0.13L40.94-10.94L40.94-10.94Q40.06-8.75 38.81-6.75L38.81-6.75L38.81-6.75Q37.56-4.75 36.09-3.25L36.09-3.25L36.09-3.25Q34.63-1.75 33-0.91L33-0.91L33-0.91Q31.38-0.06 29.78-0.22L29.78-0.22L29.78-0.22Q28.19-0.38 26.69-1.69L26.69-1.69L26.69-1.69Q25.19-3 23.91-5.84L23.91-5.84L23.91-5.84Q22.63-8.69 21.69-13.19L21.69-13.19L21.69-13.19Q20.75-17.69 20.31-24.25ZM63.94 25.81L61.13 25.63L61.13 25.63Q61.13 22.50 61.69 19.19L61.69 19.19L61.69 19.19Q62.25 15.88 62.84 12.56L62.84 12.56L62.84 12.56Q63.44 9.25 63.84 5.94L63.84 5.94L63.84 5.94Q64.25 2.63 63.94-0.56L63.94-0.56L48.38-26.94L48.38-26.94Q49.75-28.19 50.56-28.34L50.56-28.34L50.56-28.34Q51.38-28.50 51.50-28.38L51.50-28.38L51.50-28.38Q51.94-27.75 52.97-26.06L52.97-26.06L52.97-26.06Q54-24.38 55.34-22.13L55.34-22.13L55.34-22.13Q56.69-19.88 58.19-17.38L58.19-17.38L58.19-17.38Q59.69-14.88 61.03-12.63L61.03-12.63L61.03-12.63Q62.38-10.38 63.34-8.63L63.34-8.63L63.34-8.63Q64.31-6.88 64.69-6.19L64.69-6.19L67.56-29.38L70.69-27.81L63.94 25.81ZM72.94-5.38L72.94-5.38L72.94-5.38Q72.94-8.94 74.91-10.56L74.91-10.56L74.91-10.56Q76.88-12.19 80.06-12.19L80.06-12.19L80.06-12.19Q81.31-12.19 82.41-12.13L82.41-12.13L82.41-12.13Q83.50-12.06 84.50-11.81L84.50-11.81L84.50-11.81Q85.50-11.56 86.47-11.06L86.47-11.06L86.47-11.06Q87.44-10.56 88.50-9.63L88.50-9.63L88.50-9.63Q88.50-9.81 88.53-10.41L88.53-10.41L88.53-10.41Q88.56-11 88.56-11.69L88.56-11.69L88.56-11.69Q88.56-12.38 88.56-12.97L88.56-12.97L88.56-12.97Q88.56-13.56 88.56-13.81L88.56-13.81L88.56-13.81Q88.50-14.94 88.50-16.72L88.50-16.72L88.50-16.72Q88.50-18.50 88.22-20.38L88.22-20.38L88.22-20.38Q87.94-22.25 87.09-23.94L87.09-23.94L87.09-23.94Q86.25-25.63 84.38-26.50L84.38-26.50L84.38-26.50Q83.06-26.50 81.94-26.06L81.94-26.06L81.94-26.06Q80.81-25.63 79.69-25.13L79.69-25.13L79.69-25.13Q78.56-24.63 77.44-24.22L77.44-24.22L77.44-24.22Q76.31-23.81 75-23.81L75-23.81L75-23.81Q75-25.38 75.97-26.41L75.97-26.41L75.97-26.41Q76.94-27.44 78.31-28L78.31-28L78.31-28Q79.69-28.56 81.19-28.75L81.19-28.75L81.19-28.75Q82.69-28.94 83.81-28.94L83.81-28.94L83.81-28.94Q84.94-28.75 85.91-28.50L85.91-28.50L85.91-28.50Q86.88-28.25 87.72-27.50L87.72-27.50L87.72-27.50Q88.56-26.75 89.28-25.22L89.28-25.22L89.28-25.22Q90-23.69 90.53-20.94L90.53-20.94L90.53-20.94Q91.06-18.19 91.47-13.97L91.47-13.97L91.47-13.97Q91.88-9.75 92.13-3.63L92.13-3.63L92.13-3.63Q92.25-2.81 91.59-2.22L91.59-2.22L91.59-2.22Q90.94-1.63 89.81-1.22L89.81-1.22L89.81-1.22Q88.69-0.81 87.28-0.53L87.28-0.53L87.28-0.53Q85.88-0.25 84.44-0.13L84.44-0.13L84.44-0.13Q83 0 81.69 0.06L81.69 0.06L81.69 0.06Q80.38 0.13 79.50 0.13L79.50 0.13L79.50 0.13Q78.38 0.13 77.22-0.25L77.22-0.25L77.22-0.25Q76.06-0.63 75.09-1.34L75.09-1.34L75.09-1.34Q74.13-2.06 73.53-3.09L73.53-3.09L73.53-3.09Q72.94-4.13 72.94-5.38ZM81.06-9.75L81.06-9.75L81.06-9.75Q77.94-8.88 76.69-7.66L76.69-7.66L76.69-7.66Q75.44-6.44 75.59-5.31L75.59-5.31L75.59-5.31Q75.75-4.19 77.06-3.28L77.06-3.28L77.06-3.28Q78.38-2.38 80.25-2.09L80.25-2.09L80.25-2.09Q82.13-1.81 84.31-2.41L84.31-2.41L84.31-2.41Q86.50-3 88.50-4.75L88.50-4.75L88.50-4.75Q87.75-6.56 87-7.53L87-7.53L87-7.53Q86.25-8.50 85.38-9L85.38-9L85.38-9Q84.50-9.50 83.44-9.63L83.44-9.63L83.44-9.63Q82.38-9.75 81.06-9.75ZM125.75 5.50L123.38-4.13L123.38-4.13Q120.94-2.88 119.06-2.13L119.06-2.13L119.06-2.13Q117.19-1.38 115.44-0.97L115.44-0.97L115.44-0.97Q113.69-0.56 111.91-0.44L111.91-0.44L111.91-0.44Q110.13-0.31 107.81-0.31L107.81-0.31L107.81-0.31Q104.75-0.31 102.31-1.03L102.31-1.03L102.31-1.03Q99.88-1.75 98.16-3.22L98.16-3.22L98.16-3.22Q96.44-4.69 95.50-6.97L95.50-6.97L95.50-6.97Q94.56-9.25 94.56-12.50L94.56-12.50L94.56-12.50Q94.56-15.44 95.16-18.69L95.16-18.69L95.16-18.69Q95.75-21.94 96.91-25.16L96.91-25.16L96.91-25.16Q98.06-28.38 99.78-31.34L99.78-31.34L99.78-31.34Q101.50-34.31 103.81-36.56L103.81-36.56L103.81-36.56Q106.13-38.81 109-40.16L109-40.16L109-40.16Q111.88-41.50 115.38-41.50L115.38-41.50L115.38-41.50Q116.69-41.50 118.50-41.22L118.50-41.22L118.50-41.22Q120.31-40.94 121.97-40.28L121.97-40.28L121.97-40.28Q123.63-39.63 124.75-38.41L124.75-38.41L124.75-38.41Q125.88-37.19 125.88-35.31L125.88-35.31L125.88-35.31Q125.88-34.63 125.22-34.66L125.22-34.66L125.22-34.66Q124.56-34.69 123.59-35.13L123.59-35.13L123.59-35.13Q122.63-35.56 121.41-36.25L121.41-36.25L121.41-36.25Q120.19-36.94 119.06-37.56L119.06-37.56L119.06-37.56Q117.94-38.19 117-38.63L117-38.63L117-38.63Q116.06-39.06 115.56-38.94L115.56-38.94L115.56-38.94Q112.56-38.94 110.13-37.78L110.13-37.78L110.13-37.78Q107.69-36.63 105.72-34.69L105.72-34.69L105.72-34.69Q103.75-32.75 102.28-30.22L102.28-30.22L102.28-30.22Q100.81-27.69 99.84-24.94L99.84-24.94L99.84-24.94Q98.88-22.19 98.41-19.47L98.41-19.47L98.41-19.47Q97.94-16.75 97.94-14.31L97.94-14.31L97.94-14.31Q97.50-11.38 98.28-9.22L98.28-9.22L98.28-9.22Q99.06-7.06 100.63-5.66L100.63-5.66L100.63-5.66Q102.19-4.25 104.38-3.56L104.38-3.56L104.38-3.56Q106.56-2.88 108.91-2.78L108.91-2.78L108.91-2.78Q111.25-2.69 113.56-3.22L113.56-3.22L113.56-3.22Q115.88-3.75 117.78-4.81L117.78-4.81L117.78-4.81Q119.69-5.88 120.91-7.44L120.91-7.44L120.91-7.44Q122.13-9 122.31-10.94L122.31-10.94L122.31-10.94Q122.31-12.94 121.53-14.31L121.53-14.31L121.53-14.31Q120.75-15.69 119.47-16.63L119.47-16.63L119.47-16.63Q118.19-17.56 116.53-18.13L116.53-18.13L116.53-18.13Q114.88-18.69 113.16-19L113.16-19L113.16-19Q111.44-19.31 109.72-19.44L109.72-19.44L109.72-19.44Q108-19.56 106.56-19.75L106.56-19.75L106.56-20.88L106.56-20.88Q106.56-21 108.22-21.31L108.22-21.31L108.22-21.31Q109.88-21.63 112.16-22L112.16-22L112.16-22Q114.44-22.38 116.88-22.75L116.88-22.75L116.88-22.75Q119.31-23.13 121-23.31L121-23.31L121-23.31Q121-23.31 121.31-23.34L121.31-23.34L121.31-23.34Q121.63-23.38 122-23.38L122-23.38L122-23.38Q122.38-23.38 122.75-23.38L122.75-23.38L122.75-23.38Q123.13-23.38 123.38-23.38L123.38-23.38L123.38-23.38Q123.50-23.38 123.84-23.38L123.84-23.38L123.84-23.38Q124.19-23.38 124.56-23.38L124.56-23.38L124.56-23.38Q124.94-23.38 125.28-23.34L125.28-23.34L125.28-23.34Q125.63-23.31 125.75-23.31L125.75-23.31L125.75-23.31Q125.81-22.44 125.91-20.53L125.91-20.53L125.91-20.53Q126-18.63 126.13-16.28L126.13-16.28L126.13-16.28Q126.25-13.94 126.38-11.31L126.38-11.31L126.38-11.31Q126.50-8.69 126.63-6.34L126.63-6.34L126.63-6.34Q126.75-4 126.84-2.13L126.84-2.13L126.84-2.13Q126.94-0.25 127 0.69L127 0.69L127 0.69Q127 0.94 127 1.63L127 1.63L127 1.63Q127 2.31 127.03 3.09L127.03 3.09L127.03 3.09Q127.06 3.88 127.06 4.53L127.06 4.53L127.06 4.53Q127.06 5.19 127.06 5.50L127.06 5.50L125.75 5.50ZM119.75-19.75L123.38-17.31L123.38-21.13L123.38-21.13Q122.44-21.13 121.44-20.66L121.44-20.66L121.44-20.66Q120.44-20.19 119.75-19.75L119.75-19.75ZM129.69-24.25L129.69-24.25L129.69-24.25Q129.69-24.56 130.09-24.88L130.09-24.88L130.09-24.88Q130.50-25.19 131.09-25.38L131.09-25.38L131.09-25.38Q131.69-25.56 132.25-25.63L132.25-25.63L132.25-25.63Q132.81-25.69 133.06-25.44L133.06-25.44L133.06-25.44Q133.44-17.69 134.53-13.09L134.53-13.09L134.53-13.09Q135.63-8.50 137.03-6.38L137.03-6.38L137.03-6.38Q138.44-4.25 140.06-4.22L140.06-4.22L140.06-4.22Q141.69-4.19 143.25-5.59L143.25-5.59L143.25-5.59Q144.81-7 146.16-9.44L146.16-9.44L146.16-9.44Q147.50-11.88 148.34-14.69L148.34-14.69L148.34-14.69Q149.19-17.50 149.38-20.31L149.38-20.31L149.38-20.31Q149.56-23.13 148.88-25.31L148.88-25.31L152.63-25.75L152.63-25.75Q152.69-24.81 152.97-22.66L152.97-22.66L152.97-22.66Q153.25-20.50 153.59-17.78L153.59-17.78L153.59-17.78Q153.94-15.06 154.38-12.13L154.38-12.13L154.38-12.13Q154.81-9.19 155.13-6.66L155.13-6.66L155.13-6.66Q155.44-4.13 155.69-2.34L155.69-2.34L155.69-2.34Q155.94-0.56 155.94-0.13L155.94-0.13L153.25-0.13L150.31-10.94L150.31-10.94Q149.44-8.75 148.19-6.75L148.19-6.75L148.19-6.75Q146.94-4.75 145.47-3.25L145.47-3.25L145.47-3.25Q144-1.75 142.38-0.91L142.38-0.91L142.38-0.91Q140.75-0.06 139.16-0.22L139.16-0.22L139.16-0.22Q137.56-0.38 136.06-1.69L136.06-1.69L136.06-1.69Q134.56-3 133.28-5.84L133.28-5.84L133.28-5.84Q132-8.69 131.06-13.19L131.06-13.19L131.06-13.19Q130.13-17.69 129.69-24.25ZM157.94-24.38L157.94-24.38L157.94-24.38Q158.69-24.69 159.25-24.50L159.25-24.50L159.25-24.50Q159.81-24.31 160.19-23.81L160.19-23.81L160.19-23.81Q160.56-23.31 160.75-22.66L160.75-22.66L160.75-22.66Q160.94-22 161.06-21.38L161.06-21.38L161.06-21.38Q161.88-22.75 163.41-23.59L163.41-23.59L163.41-23.59Q164.94-24.44 166.69-24.72L166.69-24.72L166.69-24.72Q168.44-25 170.19-24.84L170.19-24.84L170.19-24.84Q171.94-24.69 173.16-24.09L173.16-24.09L173.16-24.09Q174.38-23.50 174.88-22.47L174.88-22.47L174.88-22.47Q175.38-21.44 174.63-20.06L174.63-20.06L174.63-20.06Q173-21 171.22-21.56L171.22-21.56L171.22-21.56Q169.44-22.13 167.75-21.94L167.75-21.94L167.75-21.94Q166.06-21.75 164.63-20.66L164.63-20.66L164.63-20.66Q163.19-19.56 162.25-17.19L162.25-17.19L162.25-17.19Q161.31-14.81 161.09-10.91L161.09-10.91L161.09-10.91Q160.88-7 161.63-1.19L161.63-1.19L159.25-1.19L159.25-1.19Q159.25-1.19 159.16-2.22L159.16-2.22L159.16-2.22Q159.06-3.25 158.97-4.94L158.97-4.94L158.97-4.94Q158.88-6.63 158.72-8.69L158.72-8.69L158.72-8.69Q158.56-10.75 158.44-12.88L158.44-12.88L158.44-12.88Q158.31-15 158.22-16.97L158.22-16.97L158.22-16.97Q158.13-18.94 158-20.38L158-20.38L158-20.38Q158-20.56 157.97-21.13L157.97-21.13L157.97-21.13Q157.94-21.69 157.94-22.34L157.94-22.34L157.94-22.34Q157.94-23 157.94-23.56L157.94-23.56L157.94-23.56Q157.94-24.13 157.94-24.38ZM177.44-24.25L177.44-24.25L177.44-24.25Q177.44-24.56 177.84-24.88L177.84-24.88L177.84-24.88Q178.25-25.19 178.84-25.38L178.84-25.38L178.84-25.38Q179.44-25.56 180-25.63L180-25.63L180-25.63Q180.56-25.69 180.81-25.44L180.81-25.44L180.81-25.44Q181.19-17.69 182.28-13.09L182.28-13.09L182.28-13.09Q183.38-8.50 184.78-6.38L184.78-6.38L184.78-6.38Q186.19-4.25 187.81-4.22L187.81-4.22L187.81-4.22Q189.44-4.19 191-5.59L191-5.59L191-5.59Q192.56-7 193.91-9.44L193.91-9.44L193.91-9.44Q195.25-11.88 196.09-14.69L196.09-14.69L196.09-14.69Q196.94-17.50 197.13-20.31L197.13-20.31L197.13-20.31Q197.31-23.13 196.63-25.31L196.63-25.31L200.38-25.75L200.38-25.75Q200.44-24.81 200.72-22.66L200.72-22.66L200.72-22.66Q201-20.50 201.34-17.78L201.34-17.78L201.34-17.78Q201.69-15.06 202.13-12.13L202.13-12.13L202.13-12.13Q202.56-9.19 202.88-6.66L202.88-6.66L202.88-6.66Q203.19-4.13 203.44-2.34L203.44-2.34L203.44-2.34Q203.69-0.56 203.69-0.13L203.69-0.13L201-0.13L198.06-10.94L198.06-10.94Q197.19-8.75 195.94-6.75L195.94-6.75L195.94-6.75Q194.69-4.75 193.22-3.25L193.22-3.25L193.22-3.25Q191.75-1.75 190.13-0.91L190.13-0.91L190.13-0.91Q188.50-0.06 186.91-0.22L186.91-0.22L186.91-0.22Q185.31-0.38 183.81-1.69L183.81-1.69L183.81-1.69Q182.31-3 181.03-5.84L181.03-5.84L181.03-5.84Q179.75-8.69 178.81-13.19L178.81-13.19L178.81-13.19Q177.88-17.69 177.44-24.25ZM206.06-24.25L206.06-24.25L206.06-24.25Q206.06-24.56 206.47-24.88L206.47-24.88L206.47-24.88Q206.88-25.19 207.47-25.38L207.47-25.38L207.47-25.38Q208.06-25.56 208.63-25.63L208.63-25.63L208.63-25.63Q209.19-25.69 209.44-25.44L209.44-25.44L209.44-25.44Q209.81-17.69 210.91-13.09L210.91-13.09L210.91-13.09Q212-8.50 213.41-6.38L213.41-6.38L213.41-6.38Q214.81-4.25 216.44-4.22L216.44-4.22L216.44-4.22Q218.06-4.19 219.63-5.59L219.63-5.59L219.63-5.59Q221.19-7 222.53-9.44L222.53-9.44L222.53-9.44Q223.88-11.88 224.72-14.69L224.72-14.69L224.72-14.69Q225.56-17.50 225.75-20.31L225.75-20.31L225.75-20.31Q225.94-23.13 225.25-25.31L225.25-25.31L229-25.75L229-25.75Q229.06-24.81 229.34-22.66L229.34-22.66L229.34-22.66Q229.63-20.50 229.97-17.78L229.97-17.78L229.97-17.78Q230.31-15.06 230.75-12.13L230.75-12.13L230.75-12.13Q231.19-9.19 231.50-6.66L231.50-6.66L231.50-6.66Q231.81-4.13 232.06-2.34L232.06-2.34L232.06-2.34Q232.31-0.56 232.31-0.13L232.31-0.13L229.63-0.13L226.69-10.94L226.69-10.94Q225.81-8.75 224.56-6.75L224.56-6.75L224.56-6.75Q223.31-4.75 221.84-3.25L221.84-3.25L221.84-3.25Q220.38-1.75 218.75-0.91L218.75-0.91L218.75-0.91Q217.13-0.06 215.53-0.22L215.53-0.22L215.53-0.22Q213.94-0.38 212.44-1.69L212.44-1.69L212.44-1.69Q210.94-3 209.66-5.84L209.66-5.84L209.66-5.84Q208.38-8.69 207.44-13.19L207.44-13.19L207.44-13.19Q206.50-17.69 206.06-24.25Z" fill="#000"></path></g></g><style>text {
  font-size: 64px;
  font-family: Arial Black;
  dominant-baseline: central;
  text-anchor: middle;
}</style></svg>